<svg width="24" height="25" viewBox="0 0 24 25" fill="none" xmlns="http://www.w3.org/2000/svg">
<path d="M6.16217 11.4804C5.92229 11.2922 5.62693 11.1838 5.31953 11.1838C4.56577 11.1838 3.95294 11.7981 3.95294 12.553C3.95294 12.9904 4.16385 13.3938 4.50635 13.6477C4.79067 12.8334 5.36741 12.0937 6.16217 11.4804Z" fill="#1F2431"/>
<path d="M17.8614 8.13802C18.4244 8.13802 18.8823 7.67926 18.8823 7.11533C18.8823 6.55141 18.4244 6.09314 17.8614 6.09314C17.2979 6.09314 16.8391 6.55141 16.8391 7.11533C16.8391 7.67926 17.2979 8.13802 17.8614 8.13802Z" fill="#1F2431"/>
<path d="M12 0.772949C5.37281 0.772949 0 6.11369 0 12.7013C0 19.289 5.37281 24.6297 12 24.6297C18.6272 24.6297 24 19.289 24 12.7013C24 6.11369 18.6272 0.772949 12 0.772949ZM19.5754 14.2042C19.6076 14.3922 19.6282 14.5823 19.6282 14.7763C19.6282 17.5681 16.1904 19.8391 11.9644 19.8391C7.73868 19.8391 4.30134 17.5681 4.30134 14.7763C4.30134 14.5703 4.3254 14.3687 4.36174 14.1696C3.78525 13.8335 3.42089 13.218 3.42089 12.5437C3.42089 11.502 4.27261 10.6554 5.31978 10.6554C5.7983 10.6554 6.25399 10.8445 6.60362 11.165C7.95548 10.2888 9.79495 9.7426 11.8254 9.71819L13.0076 6.00142C13.0499 5.8689 13.1878 5.79129 13.3226 5.8235L16.4172 6.54762C16.6436 5.97311 17.2039 5.56382 17.8616 5.56382C18.7178 5.56382 19.4148 6.25646 19.4148 7.10774C19.4148 7.95902 18.7178 8.65214 17.8616 8.65214C17.0048 8.65214 16.308 7.95902 16.308 7.10774C16.308 7.09334 16.3117 7.08065 16.3121 7.06625L13.4412 6.39411L12.3806 9.72747C14.3222 9.79653 16.0759 10.3396 17.3711 11.1918C17.7232 10.8538 18.1835 10.6551 18.6802 10.6551C19.7276 10.6551 20.5801 11.5023 20.5801 12.5437C20.5794 13.25 20.1904 13.8782 19.5754 14.2042Z" fill="#1F2431"/>
<path d="M8.26532 13.84C8.26532 13.2203 8.77257 12.7161 9.39596 12.7161C10.0193 12.7161 10.5264 13.2203 10.5264 13.84C10.5264 14.4596 10.0196 14.9636 9.39596 14.9636C8.77233 14.9636 8.26532 14.4596 8.26532 13.84ZM14.743 17.1718C14.1734 17.7386 13.2789 18.0136 12.0091 18.0136C12.0061 18.0136 12.0034 18.0114 12 18.0114C11.9966 18.0114 11.9939 18.0136 11.9904 18.0136C10.7206 18.0136 9.82636 17.7386 9.2565 17.1718C9.15289 17.0689 9.15289 16.9017 9.2565 16.7982C9.3606 16.6952 9.52879 16.6952 9.63289 16.7982C10.0977 17.2607 10.8686 17.485 11.9904 17.485C11.9939 17.485 11.9966 17.4869 12 17.4869C12.0034 17.4869 12.0061 17.485 12.0091 17.485C13.1311 17.485 13.9023 17.2604 14.3671 16.7982C14.4712 16.6952 14.6394 16.6952 14.7435 16.7982C14.8471 16.9017 14.8471 17.0691 14.743 17.1718ZM14.6082 14.9636C13.9853 14.9636 13.4778 14.4601 13.4778 13.84C13.4778 13.2198 13.9848 12.7161 14.6082 12.7161C15.2316 12.7161 15.7386 13.2203 15.7386 13.84C15.7386 14.4596 15.2316 14.9636 14.6082 14.9636Z" fill="#1F2431"/>
<path d="M18.6795 11.1838C18.3534 11.1838 18.0475 11.3013 17.803 11.5057C18.5928 12.1224 19.1629 12.8652 19.4382 13.682C19.8141 13.4322 20.0471 13.0147 20.0471 12.5497C20.0471 11.7967 19.4342 11.1838 18.6795 11.1838Z" fill="#1F2431"/>
</svg>
