<svg width="24" height="25" viewBox="0 0 24 25" fill="none" xmlns="http://www.w3.org/2000/svg">
<path d="M12 0.772949C5.373 0.772949 0 6.11388 0 12.7013C0 19.2888 5.373 24.6297 12 24.6297C18.627 24.6297 24 19.2888 24 12.7013C24 6.11241 18.627 0.772949 12 0.772949ZM17.97 10.0234L17.979 10.4036C17.979 14.2863 15.0075 18.7594 9.57297 18.7594C7.90498 18.7594 6.35246 18.2734 5.04447 17.4398C5.2755 17.4667 5.51096 17.4816 5.74949 17.4816C7.134 17.4816 8.40749 17.0119 9.41848 16.2246C8.1255 16.2008 7.03497 15.3509 6.65848 14.1849C6.83996 14.2192 7.02298 14.2356 7.21497 14.2356C7.48497 14.2356 7.74595 14.2013 7.99345 14.1342C6.64195 13.8628 5.62346 12.6775 5.62346 11.255V11.2178C6.02245 11.4384 6.47695 11.5696 6.96145 11.5861C6.16944 11.0597 5.64744 10.1606 5.64744 9.14222C5.64744 8.60397 5.79296 8.09999 6.04643 7.66611C7.50294 9.44343 9.68093 10.6124 12.1364 10.7347C12.0854 10.5199 12.06 10.2948 12.06 10.0652C12.06 8.44446 13.3829 7.12933 15.015 7.12933C15.8639 7.12933 16.632 7.48566 17.1719 8.05673C17.8439 7.92401 18.4769 7.6795 19.0484 7.34401C18.8279 8.0299 18.36 8.60544 17.7494 8.96923C18.345 8.89914 18.9164 8.73959 19.4459 8.507C19.05 9.09445 18.5475 9.61186 17.97 10.0234Z" fill="#1F2431"/>
</svg>
