<svg width="24" height="25" viewBox="0 0 24 25" fill="none" xmlns="http://www.w3.org/2000/svg">
<path d="M14.1818 13.785H10.9091V15.9686H14.1818C15.6238 15.9686 15.6238 13.785 14.1818 13.785Z" fill="#1F2431"/>
<path d="M14.1818 9.4491H10.9091V11.6327H14.1818C15.6238 11.6327 15.6238 9.4491 14.1818 9.4491Z" fill="#1F2431"/>
<path d="M12 0.772949C5.51033 0.772949 0 6.033 0 12.7013C0 19.2875 5.40182 24.6297 12 24.6297C18.6168 24.6297 24 19.2786 24 12.7013C24 6.12402 18.6168 0.772949 12 0.772949ZM14.1818 18.1233H13.0909V19.2077C13.0909 20.6372 10.9091 20.643 10.9091 19.2077V18.1233H7.63636C6.19833 18.1233 6.19244 15.9545 7.63636 15.9545H8.72727V9.44813H7.63636C6.19833 9.44813 6.19244 7.27934 7.63636 7.27934H10.9091V6.19494C10.9091 4.76548 13.0909 4.75963 13.0909 6.19494V7.27934H14.1818C16.9819 7.27934 18.521 10.5875 16.6033 12.7013C18.521 14.8151 16.9819 18.1233 14.1818 18.1233Z" fill="#1F2431"/>
</svg>
