<svg width="24" height="25" viewBox="0 0 24 25" fill="none" xmlns="http://www.w3.org/2000/svg">
<path fill-rule="evenodd" clip-rule="evenodd" d="M12 24.6297C18.6274 24.6297 24 19.2892 24 12.7013C24 6.11346 18.6274 0.772949 12 0.772949C5.37258 0.772949 0 6.11346 0 12.7013C0 19.2892 5.37258 24.6297 12 24.6297ZM10 8.72629C10 9.82427 9.10457 10.7144 8 10.7144C6.89543 10.7144 6 9.82427 6 8.72629C6 7.62831 6.89543 6.73823 8 6.73823C9.10457 6.73823 10 7.62831 10 8.72629ZM18 8.72629C18 9.82427 17.1046 10.7144 16 10.7144C14.8954 10.7144 14 9.82427 14 8.72629C14 7.62831 14.8954 6.73823 16 6.73823C17.1046 6.73823 18 7.62831 18 8.72629ZM18 16.6785C18 17.7765 17.1046 18.6666 16 18.6666C14.8954 18.6666 14 17.7765 14 16.6785C14 15.5806 14.8954 14.6905 16 14.6905C17.1046 14.6905 18 15.5806 18 16.6785ZM10 16.6785C10 17.7765 9.10457 18.6666 8 18.6666C6.89543 18.6666 6 17.7765 6 16.6785C6 15.5806 6.89543 14.6905 8 14.6905C9.10457 14.6905 10 15.5806 10 16.6785Z" fill="#1F2431"/>
</svg>
