<svg width="24" height="25" viewBox="0 0 24 25" fill="none" xmlns="http://www.w3.org/2000/svg">
<path d="M12.0175 12.6382C12.012 12.6382 12.0058 12.638 12 12.6377C11.994 12.638 11.9878 12.6382 11.9823 12.6382C10.493 12.6382 9.18075 12.2635 8.40525 12.9712C7.9405 13.3959 7.74475 13.9076 7.74475 14.4585C7.74475 16.76 9.59975 17.0425 11.982 17.0425H12.0175C14.3997 17.0425 16.2547 16.7597 16.2547 14.4585C16.2547 13.9073 16.059 13.3959 15.5942 12.9712C14.8187 12.2635 13.5067 12.6382 12.0175 12.6382ZM9.992 15.7831C9.53875 15.7831 9.17125 15.2771 9.17125 14.6531C9.17125 14.0291 9.53875 13.5234 9.992 13.5234C10.4452 13.5234 10.8132 14.0291 10.8132 14.6531C10.8132 15.2771 10.4452 15.7831 9.992 15.7831ZM14.0077 15.7831C13.5542 15.7831 13.1865 15.2771 13.1865 14.6531C13.1865 14.0291 13.5542 13.5234 14.0077 13.5234C14.4607 13.5234 14.8285 14.0291 14.8285 14.6531C14.8285 15.2771 14.461 15.7831 14.0077 15.7831ZM12 0.772949C5.37225 0.772949 0 6.11338 0 12.7013C0 19.2893 5.37225 24.6297 12 24.6297C18.6273 24.6297 24 19.2893 24 12.7013C24 6.11338 18.6273 0.772949 12 0.772949ZM13.0945 17.5972C12.8795 17.5972 12.452 17.5977 12 17.5982C11.5477 17.5977 11.12 17.5972 10.9052 17.5972C9.9545 17.5972 6.1895 17.5249 6.1895 13.0134C6.1895 11.9754 6.5475 11.216 7.13325 10.5835C7.03975 10.3542 7.035 9.05149 7.53375 7.80448C7.53375 7.80448 8.67775 7.92923 10.4087 9.10989C10.7715 9.01024 11.3857 8.96054 12 8.96054C12.6137 8.96054 13.228 9.00999 13.5913 9.10989C15.322 7.92923 16.4657 7.80448 16.4657 7.80448C16.9645 9.05149 16.96 10.3542 16.8665 10.5835C17.4525 11.216 17.8105 11.9757 17.8105 13.0134C17.8105 17.5249 14.0452 17.5972 13.0945 17.5972Z" fill="#1F2431"/>
</svg>
