<svg width="242" height="50" viewBox="0 0 242 50" fill="none" xmlns="http://www.w3.org/2000/svg">
<g id="Group 11">
<path id="dappy" fill-rule="evenodd" clip-rule="evenodd" d="M57.7585 31.947V11.2213H61.2505C62.6964 11.2213 64.0586 11.4773 65.3372 11.9893C66.6159 12.5013 67.7319 13.2202 68.6838 14.1456C69.6362 15.0711 70.39 16.1668 70.9458 17.4334C71.501 18.7005 71.7791 20.0884 71.7791 21.5975C71.7791 23.0169 71.5365 24.3289 71.0516 25.5325C70.5663 26.7366 69.8961 27.7828 69.041 28.6726C68.1853 29.5619 67.1848 30.2804 66.0384 30.8285C64.8919 31.3766 63.6579 31.7044 62.3351 31.8123C61.9471 31.8484 61.5585 31.8794 61.171 31.9067C60.7829 31.9336 60.3863 31.947 59.9805 31.947H57.7585ZM81.2509 27.0556C81.7271 25.34 81.9652 23.5299 81.9652 21.6249C81.9652 19.7385 81.7225 17.9325 81.2377 16.2076C80.7524 14.4827 80.0736 12.875 79.2007 11.3833C78.3278 9.89224 77.2736 8.54462 76.0395 7.34049C74.805 6.13688 73.4427 5.10358 71.9523 4.24113C70.4619 3.37868 68.8575 2.71442 67.1376 2.2468C65.4182 1.77971 63.6325 1.5459 61.7809 1.5459H48.739C48.3333 1.5459 48.0293 1.66306 47.8267 1.89635C47.6235 2.13016 47.5227 2.43571 47.5227 2.813V40.4642C47.5227 40.9318 47.6458 41.2368 47.8925 41.3803C48.1397 41.5243 48.4219 41.5961 48.739 41.5961H61.7809C63.6325 41.5961 65.4223 41.3669 67.1513 40.9091C68.8793 40.4508 70.4883 39.7999 71.9787 38.955C73.4691 38.1106 74.8267 37.0861 76.0527 35.8825C77.2782 34.6789 78.3319 33.3354 79.2139 31.8531C80.0953 30.3707 80.7747 28.7718 81.2509 27.0556ZM122.2 40.4761C122.306 40.1979 122.359 39.9058 122.359 39.6002V9.22596C122.359 8.90286 122.306 8.61538 122.2 8.36351C122.094 8.11215 121.918 7.88764 121.671 7.68996C121.477 7.49228 121.248 7.36635 120.983 7.31267C120.719 7.25847 120.49 7.23164 120.296 7.23164H116.354C116.001 7.23164 115.728 7.25435 115.534 7.29873C115.34 7.34415 115.177 7.43344 115.045 7.56867C114.912 7.70338 114.789 7.90983 114.674 8.18854C114.559 8.46725 114.414 8.83061 114.238 9.28016L113.471 11.7328C112.994 11.0319 112.439 10.3805 111.804 9.77822C111.169 9.17641 110.459 8.65977 109.674 8.2288C108.889 7.79783 108.025 7.45615 107.082 7.2048C106.139 6.95344 105.12 6.82751 104.027 6.82751C101.628 6.82751 99.3796 7.28118 97.2808 8.18854C95.182 9.0959 93.3567 10.3444 91.805 11.9346C90.2528 13.5248 89.0273 15.3937 88.1276 17.5403C87.2284 19.6879 86.7786 22.0105 86.7786 24.5075C86.7786 26.1607 86.9812 27.7462 87.387 29.2642C87.7928 30.7832 88.3703 32.1979 89.1201 33.5094C89.8693 34.8208 90.764 36.0116 91.805 37.0805C92.8456 38.1499 94.0047 39.066 95.2838 39.8294C96.562 40.5932 97.9379 41.1816 99.4106 41.5945C100.883 42.0079 102.422 42.2149 104.027 42.2149C104.926 42.2149 105.794 42.1024 106.632 41.8779C107.469 41.6529 108.255 41.3571 108.987 40.9886C109.718 40.6201 110.388 40.2025 110.997 39.7349C111.605 39.2683 112.148 38.7919 112.624 38.3068L112.968 39.5192C113.073 39.8252 113.175 40.1081 113.272 40.3682C113.369 40.6288 113.488 40.8492 113.629 41.0288C113.77 41.2085 113.955 41.3478 114.185 41.4464C114.414 41.5455 114.714 41.5945 115.084 41.5945H120.296C120.49 41.5945 120.719 41.5677 120.983 41.514C121.248 41.4598 121.477 41.3344 121.671 41.1367C121.918 40.9747 122.094 40.7548 122.2 40.4761ZM96.3015 24.5109C96.3015 25.6965 96.4819 26.8061 96.8436 27.8394C97.2053 28.8727 97.721 29.7667 98.3912 30.5212C99.0614 31.2758 99.8685 31.8735 100.812 32.3132C101.755 32.754 102.8 32.9734 103.947 32.9734C105.128 32.9734 106.226 32.754 107.24 32.3132C108.254 31.8735 109.136 31.2758 109.885 30.5212C110.635 29.7667 111.221 28.8727 111.645 27.8394C112.068 26.8061 112.28 25.6965 112.28 24.5109C112.28 23.361 112.068 22.2647 111.645 21.2227C111.221 20.1811 110.635 19.2645 109.885 18.4737C109.136 17.683 108.254 17.059 107.24 16.6007C106.226 16.1424 105.128 15.9132 103.947 15.9132C102.8 15.9132 101.755 16.1424 100.812 16.6007C99.8685 17.059 99.0614 17.683 98.3912 18.4737C97.721 19.2645 97.2053 20.1811 96.8436 21.2227C96.4819 22.2647 96.3015 23.361 96.3015 24.5109ZM138.84 39.8069V48.3933C138.84 48.8707 138.46 49.2578 137.991 49.2578H129.557C129.088 49.2578 128.708 48.8707 128.708 48.3933V9.22572C128.708 8.86649 128.774 8.57023 128.906 8.33643C129.039 8.10314 129.202 7.88739 129.396 7.68972C129.625 7.49204 129.863 7.3661 130.11 7.31242C130.357 7.25823 130.595 7.23139 130.824 7.23139H134.819C135.154 7.23139 135.431 7.28559 135.652 7.39346C135.873 7.50081 136.053 7.64946 136.194 7.83784C136.336 8.02675 136.454 8.24197 136.551 8.48456C136.648 8.72714 136.741 8.99243 136.83 9.27991L137.425 11.0291C137.647 11.6804 138.49 11.8203 138.901 11.2732C139.078 11.0373 139.257 10.7994 139.435 10.5599C139.937 9.88636 140.533 9.27527 141.221 8.72714C141.909 8.17901 142.728 7.72584 143.681 7.3661C144.633 7.00688 145.797 6.82726 147.173 6.82726C149.589 6.82726 151.815 7.28094 153.852 8.1883C155.889 9.09565 157.644 10.3442 159.117 11.9344C160.589 13.5246 161.74 15.3935 162.569 17.5406C163.397 19.6877 163.812 22.0103 163.812 24.5073C163.812 26.9868 163.397 29.3047 162.569 31.4606C161.74 33.617 160.589 35.49 159.117 37.0802C157.644 38.6704 155.889 39.9236 153.852 40.8402C151.815 41.7564 149.589 42.2147 147.173 42.2147C146.026 42.2147 145.038 42.0753 144.21 41.7966C143.381 41.5184 142.645 41.1545 142.001 40.7055C141.357 40.2565 140.789 39.762 140.295 39.2227C139.774 38.6544 138.84 39.0296 138.84 39.8069ZM138.101 24.1034C138.153 22.9896 138.414 21.9382 138.881 20.9498C139.348 19.9619 139.957 19.1036 140.707 18.3759C141.456 17.6486 142.329 17.0737 143.325 16.6515C144.322 16.2293 145.375 16.0177 146.486 16.0177C147.615 16.0177 148.646 16.2427 149.582 16.6917C150.516 17.1408 151.318 17.7519 151.989 18.524C152.659 19.2972 153.179 20.1999 153.55 21.2327C153.92 22.2665 154.105 23.3581 154.105 24.5075C154.105 25.6936 153.92 26.8079 153.55 27.8494C153.179 28.892 152.659 29.7947 151.989 30.5581C151.318 31.322 150.516 31.9284 149.582 32.3775C148.646 32.8265 147.615 33.051 146.486 33.051C145.34 33.051 144.255 32.8265 143.232 32.3775C142.21 31.9284 141.319 31.322 140.561 30.5581C139.802 29.7947 139.202 28.892 138.762 27.8494C138.321 26.8079 138.101 25.6936 138.101 24.5075V24.1034ZM179.234 39.7811V48.4036C179.234 48.8753 178.859 49.2578 178.396 49.2578H169.941C169.478 49.2578 169.102 48.8753 169.102 48.4036V9.22572C169.102 8.86649 169.169 8.57023 169.301 8.33643C169.433 8.10314 169.596 7.88739 169.79 7.68972C170.019 7.49204 170.257 7.3661 170.505 7.31242C170.751 7.25823 170.989 7.23139 171.219 7.23139H175.213C175.548 7.23139 175.826 7.28559 176.047 7.39346C176.267 7.50081 176.447 7.64946 176.589 7.83784C176.73 8.02675 176.849 8.24197 176.946 8.48456C177.043 8.72714 177.135 8.99243 177.224 9.27991L177.826 11.0471C178.045 11.6908 178.878 11.8286 179.284 11.2877C179.465 11.0471 179.647 10.8046 179.829 10.5599C180.332 9.88636 180.927 9.27527 181.615 8.72714C182.303 8.17901 183.123 7.72584 184.075 7.3661C185.028 7.00688 186.192 6.82726 187.567 6.82726C189.983 6.82726 192.21 7.28094 194.247 8.1883C196.284 9.09565 198.039 10.3442 199.511 11.9344C200.983 13.5246 202.134 15.3935 202.963 17.5406C203.792 19.6877 204.206 22.0103 204.206 24.5073C204.206 26.9868 203.792 29.3047 202.963 31.4606C202.134 33.617 200.983 35.49 199.511 37.0802C198.039 38.6704 196.284 39.9236 194.247 40.8402C192.21 41.7564 189.983 42.2147 187.567 42.2147C186.42 42.2147 185.433 42.0753 184.605 41.7966C183.775 41.5184 183.039 41.1545 182.395 40.7055C181.751 40.2565 181.183 39.762 180.689 39.2227C180.684 39.2175 180.679 39.2118 180.674 39.2067C180.159 38.6436 179.234 39.0116 179.234 39.7811ZM178.493 24.1034C178.546 22.9896 178.806 21.9382 179.274 20.9498C179.74 19.9619 180.349 19.1036 181.099 18.3759C181.848 17.6486 182.721 17.0737 183.718 16.6515C184.714 16.2293 185.768 16.0177 186.879 16.0177C188.008 16.0177 189.039 16.2427 189.974 16.6917C190.909 17.1408 191.711 17.7519 192.382 18.524C193.051 19.2972 193.572 20.1999 193.942 21.2327C194.313 22.2665 194.498 23.3581 194.498 24.5075C194.498 25.6936 194.313 26.8079 193.942 27.8494C193.572 28.892 193.051 29.7947 192.382 30.5581C191.711 31.322 190.909 31.9284 189.974 32.3775C189.039 32.8265 188.008 33.051 186.879 33.051C185.732 33.051 184.648 32.8265 183.625 32.3775C182.602 31.9284 181.712 31.322 180.953 30.5581C180.195 29.7947 179.595 28.892 179.155 27.8494C178.714 26.8079 178.493 25.6936 178.493 24.5075V24.1034ZM215.965 48.1502L218.377 41.7657C218.45 41.5716 218.448 41.3559 218.371 41.1634L205.872 9.95713C205.59 9.23867 205.586 8.62293 205.859 8.11093C206.133 7.59893 206.736 7.34293 207.671 7.34293H214.205C214.646 7.34293 215.008 7.48228 215.29 7.76048C215.572 8.03919 215.783 8.38499 215.925 8.7979L222.646 28.2766C222.898 29.0075 223.914 29.0039 224.162 28.2715L230.739 8.7979C230.933 8.22344 231.179 7.83738 231.48 7.63918C231.779 7.44202 232.194 7.34293 232.723 7.34293H239.521C240.015 7.34293 240.403 7.41002 240.686 7.54473C240.967 7.67944 241.166 7.85957 241.28 8.08409C241.395 8.30861 241.435 8.56048 241.4 8.83867C241.364 9.11738 241.294 9.39093 241.188 9.66035C240.518 11.3496 239.786 13.1958 238.993 15.1989C238.199 17.2026 237.374 19.2867 236.519 21.4519C235.664 23.617 234.795 25.8183 233.913 28.0552C233.031 30.2921 232.171 32.4883 231.334 34.6447C230.496 36.8005 229.689 38.8718 228.913 40.8568C228.137 42.8418 227.427 44.6658 226.784 46.3283C226.45 47.1902 226.141 47.9923 225.853 48.7438C225.733 49.0571 225.437 49.2615 225.106 49.2615H216.714C216.151 49.2615 215.763 48.686 215.965 48.1502Z" fill="#1F2431"/>
<path id="Oval" fill-rule="evenodd" clip-rule="evenodd" d="M5.70241 18.7247C8.8519 18.7247 11.4051 16.1612 11.4051 12.9991C11.4051 9.83689 8.8519 7.27344 5.70241 7.27344C2.55292 7.27344 -0.000244141 9.83689 -0.000244141 12.9991C-0.000244141 16.1612 2.55292 18.7247 5.70241 18.7247Z" fill="#315EFB"/>
<path id="Oval_2" fill-rule="evenodd" clip-rule="evenodd" d="M24.7117 37.8067C27.8612 37.8067 30.4143 35.2433 30.4143 32.0811C30.4143 28.9189 27.8612 26.3555 24.7117 26.3555C21.5622 26.3555 19.009 28.9189 19.009 32.0811C19.009 35.2433 21.5622 37.8067 24.7117 37.8067Z" fill="#315EFB"/>
<path id="Oval_3" fill-rule="evenodd" clip-rule="evenodd" d="M24.5659 9.17967C21.3357 9.17967 18.717 11.8089 18.717 15.0521C18.717 18.2954 21.3357 20.9246 24.5659 20.9246C27.7962 20.9246 30.4148 18.2954 30.4148 15.0521C30.4148 11.8089 27.7962 9.17967 24.5659 9.17967Z" fill="#315EFB"/>
<path id="Oval_4" fill-rule="evenodd" clip-rule="evenodd" d="M5.84961 27.9744C2.61936 27.9744 0.000733376 30.6035 0.000733376 33.8468C0.000733376 37.0901 2.61936 39.7192 5.84961 39.7192C9.07985 39.7192 11.6985 37.0901 11.6985 33.8468C11.6985 30.6035 9.07985 27.9744 5.84961 27.9744Z" fill="#315EFB"/>
</g>
</svg>
