<svg width="593" height="400" viewBox="0 0 593 400" fill="none" xmlns="http://www.w3.org/2000/svg">
<path d="M46.1616 101.315H188.198L252.114 164.931H366.926L405.394 124.877H500.085" stroke="#EEEEFF" stroke-width="2" stroke-linecap="round" stroke-linejoin="round"/>
<path d="M110.67 232.669H204.177L363.375 74.2176H581.756" stroke="#EEEEFF" stroke-width="2" stroke-linecap="round" stroke-linejoin="round"/>
<ellipse cx="222.523" cy="28.2739" rx="28.4072" ry="28.2739" fill="url(#paint0_linear_6271_529)"/>
<ellipse cx="94.6905" cy="101.314" rx="3.5509" ry="3.53423" fill="#EEEEFF"/>
<path d="M80.4871 100.136L94.6907 97.7799V104.848L80.4871 102.492V100.136Z" fill="url(#paint1_linear_6271_529)"/>
<path d="M177.545 111.917L214.237 148.438" stroke="#EEEEFF" stroke-width="2" stroke-linecap="round" stroke-linejoin="round"/>
<path d="M217.788 151.972L227.257 161.396" stroke="#EEEEFF" stroke-width="2" stroke-linecap="round" stroke-linejoin="round"/>
<path d="M401.251 234.437L437.944 270.957" stroke="#EEEEFF" stroke-width="2" stroke-linecap="round" stroke-linejoin="round"/>
<path d="M441.495 274.492L450.964 283.917" stroke="#EEEEFF" stroke-width="2" stroke-linecap="round" stroke-linejoin="round"/>
<path d="M415.455 140.097H520.207" stroke="#EEEEFF" stroke-width="2" stroke-linecap="round" stroke-linejoin="round"/>
<path d="M525.533 140.097H538.924" stroke="#EEEEFF" stroke-width="2" stroke-linecap="round" stroke-linejoin="round"/>
<path d="M544.471 140.097H572.287" stroke="#EEEEFF" stroke-width="2" stroke-linecap="round" stroke-linejoin="round"/>
<path d="M79.8953 217.06H140.261" stroke="#EEEEFF" stroke-width="2" stroke-linecap="round" stroke-linejoin="round"/>
<path d="M145.587 217.06H158.978" stroke="#EEEEFF" stroke-width="2" stroke-linecap="round" stroke-linejoin="round"/>
<path d="M164.525 217.06H192.34" stroke="#EEEEFF" stroke-width="2" stroke-linecap="round" stroke-linejoin="round"/>
<ellipse cx="456.882" cy="124.876" rx="3.5509" ry="3.53423" fill="#EEEEFF"/>
<path d="M442.679 123.698L456.882 121.342V128.41L442.679 126.054V123.698Z" fill="url(#paint2_linear_6271_529)"/>
<ellipse cx="543.287" cy="74.2185" rx="3.5509" ry="3.53423" fill="#EEEEFF"/>
<path d="M529.084 73.0404L543.287 70.6842V77.7527L529.084 75.3965V73.0404Z" fill="url(#paint3_linear_6271_529)"/>
<path d="M62.7325 302.765H196.483L285.847 213.82H403.027L452.148 262.711H550.981" stroke="#EEEEFF" stroke-width="2" stroke-linecap="round" stroke-linejoin="round"/>
<ellipse cx="169.26" cy="302.765" rx="3.5509" ry="3.53423" fill="#EEEEFF"/>
<path d="M155.056 301.587L169.26 299.231V306.3L155.056 303.943V301.587Z" fill="url(#paint4_linear_6271_529)"/>
<path d="M200.734 138.601C200.734 138.601 180.837 179.925 200.259 246.001C200.404 246.495 200.579 246.978 200.734 247.461C215.466 291.344 371.639 279.328 398.675 264.412C398.675 264.412 428.243 198.438 401.248 136.298C401.258 136.298 291.729 87.8921 200.734 138.601Z" fill="#315EFB"/>
<g style="mix-blend-mode:soft-light">
<mask id="mask0_6271_529" style="mask-type:alpha" maskUnits="userSpaceOnUse" x="191" y="115" width="222" height="164">
<path d="M200.734 138.601C200.734 138.601 180.837 179.925 200.259 246.001C200.404 246.495 200.579 246.978 200.734 247.461C215.466 291.344 371.639 279.328 398.676 264.412C398.676 264.412 428.243 198.438 401.248 136.298C401.258 136.298 291.729 87.8921 200.734 138.601Z" fill="#315EFB"/>
</mask>
<g mask="url(#mask0_6271_529)">
<g style="mix-blend-mode:soft-light">
<path d="M193 159.541C193 159.541 187.026 193.015 200.116 249.299C200.116 249.299 205.671 278.937 288.992 283.719C362.258 287.926 399.871 267.598 399.871 267.598C399.871 267.598 414.364 242.822 416 230.734C416 230.734 325.876 266.816 237 237.076C186.5 220.177 193 159.541 193 159.541Z" fill="url(#paint5_linear_6271_529)"/>
</g>
</g>
</g>
<path d="M410.056 224.064L411 219.693C411 219.693 392.427 223.227 375.775 221.899C359.123 220.571 354.513 214.912 352.003 207.752C352.003 207.752 351.281 223.707 374.22 225.954C397.459 228.242 410.056 224.064 410.056 224.064Z" fill="#1642FA"/>
<path d="M414.218 219.902C414.218 219.902 419.383 205.51 415.654 183.338C415.654 183.338 401.387 175.33 375.043 177.674C348.699 180.017 346.498 198.716 351.509 212.573C357.056 227.868 392.037 225.34 414.218 219.902Z" fill="#356BFF"/>
<ellipse cx="370" cy="201.788" rx="14" ry="13.9164" fill="white"/>
<path d="M382.667 201.788C382.667 208.742 376.996 214.379 370 214.379C363.004 214.379 357.333 208.742 357.333 201.788C357.333 201.788 364 204.439 372.667 199.138C382.667 193.021 382.667 201.788 382.667 201.788Z" fill="url(#paint6_linear_6271_529)"/>
<path fill-rule="evenodd" clip-rule="evenodd" d="M365.655 199.71C367.095 199.71 368.262 198.541 368.262 197.099C368.262 195.658 367.095 194.489 365.655 194.489C364.216 194.489 363.049 195.658 363.049 197.099C363.049 198.541 364.216 199.71 365.655 199.71Z" fill="#315EFB"/>
<path fill-rule="evenodd" clip-rule="evenodd" d="M374.344 208.412C375.784 208.412 376.951 207.243 376.951 205.801C376.951 204.36 375.784 203.191 374.344 203.191C372.905 203.191 371.738 204.36 371.738 205.801C371.738 207.243 372.905 208.412 374.344 208.412Z" fill="#315EFB"/>
<path fill-rule="evenodd" clip-rule="evenodd" d="M374.278 195.359C372.802 195.359 371.605 196.558 371.605 198.037C371.605 199.515 372.802 200.714 374.278 200.714C375.754 200.714 376.951 199.515 376.951 198.037C376.951 196.558 375.754 195.359 374.278 195.359Z" fill="#315EFB"/>
<path fill-rule="evenodd" clip-rule="evenodd" d="M365.723 203.927C364.247 203.927 363.05 205.126 363.05 206.604C363.05 208.083 364.247 209.282 365.723 209.282C367.2 209.282 368.397 208.083 368.397 206.604C368.397 205.126 367.2 203.927 365.723 203.927Z" fill="#315EFB"/>
<path d="M223.988 44.0153C231.434 14.3516 289.733 2.52144 317.952 0.314315C364.49 -3.32574 360.944 25.4755 317.952 44.0153C303.945 50.0557 294.904 76.6807 265.651 84.185C254.32 87.0919 214.681 81.095 223.988 44.0153Z" fill="url(#paint7_linear_6271_529)"/>
<circle r="3.54257" transform="matrix(0.708768 0.705441 -0.708768 0.705441 430.376 241.042)" fill="#EEEEFF"/>
<path d="M421.17 230.213L432.887 238.544L427.866 243.542L419.496 231.88L421.17 230.213Z" fill="url(#paint8_linear_6271_529)"/>
<path d="M1.92255 246.335C-4.97406 230.383 8.33286 223.902 15.8484 222.656C54.9732 222.656 83.4884 246.335 103.382 251.32C123.276 256.305 150.465 255.059 186.274 274.376C222.084 293.693 229.378 311.14 248.609 329.211C267.84 347.281 283.755 336.065 310.281 337.935C336.806 339.804 346.09 358.498 310.281 372.83C274.471 387.162 257.23 373.453 229.378 372.83C201.526 372.207 165.054 341.673 150.465 321.11C135.876 300.547 113.329 283.099 83.4884 279.984C53.6473 276.868 10.5433 266.275 1.92255 246.335Z" fill="url(#paint9_linear_6271_529)"/>
<path d="M328.576 327.361L400.434 377.002L284.269 399.599L328.576 327.361Z" fill="url(#paint10_linear_6271_529)"/>
<path fill-rule="evenodd" clip-rule="evenodd" d="M521.151 310.253C521.344 304.002 526.649 298.691 532.996 298.464C539.343 298.237 544.329 303.181 544.136 309.432C543.942 315.683 538.638 320.995 532.291 321.221C525.944 321.448 520.957 316.504 521.151 310.253ZM531.542 307.888L526.436 308.758L525.78 310.651L530.887 309.781L531.542 307.888ZM538.461 305.023C538.916 304.982 539.511 305.143 539.79 305.699C540.068 306.254 539.98 306.56 539.749 307.36L539.749 307.361C539.519 308.161 538.775 310.566 538.474 311.423C538.172 312.279 537.635 313.024 536.96 313.482L536.9 313.523C536.268 313.953 536.003 314.133 535.1 314.215L525.571 315.073L526.296 312.786L535.258 311.979L536.705 307.403L527.814 308.204L528.539 305.917L538.461 305.023Z" fill="#315EFB"/>
<path fill-rule="evenodd" clip-rule="evenodd" d="M459.955 336.073C463.127 326.786 473.434 321.608 482.977 324.507C492.521 327.405 497.686 337.283 494.514 346.569L493.633 349.15C490.461 358.436 480.154 363.614 470.611 360.715C461.068 357.817 455.902 347.939 459.074 338.653L459.955 336.073ZM467.907 344.867L469.779 344.703L466.431 349.875L481.239 354.212L483.732 350.351L474.852 347.751L477.28 343.985L479.159 343.801L481.088 340.831L479.229 341.02L483.56 334.324L477.662 332.597L471.752 341.701L469.85 341.889L467.907 344.867L467.907 344.867Z" fill="#315EFB"/>
<path d="M488.502 201.131C489.811 190.334 496.249 186.537 499.304 185.989C512.725 189.939 528.437 178.747 540.221 182.038C552.005 185.33 561.17 201.131 566.735 206.398C572.299 211.665 600.777 216.932 590.957 233.391C581.137 249.851 566.08 233.391 542.839 228.783C519.599 224.174 521.235 238.988 510.761 243.596C500.286 248.205 492.103 240.963 488.502 233.391C484.901 225.82 486.865 214.628 488.502 201.131Z" fill="url(#paint11_linear_6271_529)"/>
<path fill-rule="evenodd" clip-rule="evenodd" d="M158.527 376.119C148.112 365.449 148.36 348.394 159.079 338.029C169.798 327.664 186.933 327.909 197.349 338.578C207.764 349.248 207.515 366.303 196.797 376.668C186.078 387.033 168.943 386.789 158.527 376.119Z" fill="white"/>
<path fill-rule="evenodd" clip-rule="evenodd" d="M155.843 375.729C145.657 364.901 146.134 347.79 157.03 337.639C167.926 327.488 185.114 328.14 195.3 338.968C205.485 349.796 205.008 366.907 194.112 377.058C183.216 387.209 166.028 386.556 155.843 375.729ZM188.641 370.998L168.866 367.094L182.148 364.048L182.149 364.05L186.06 350.966L188.641 370.998ZM162.529 343.665L184.369 349.664L180.367 362.594L167.116 365.71L162.529 343.665Z" fill="#315EFB"/>
<path fill-rule="evenodd" clip-rule="evenodd" d="M498.668 167.498C504.096 160.875 513.897 159.891 520.544 165.288C527.192 170.685 528.192 180.439 522.765 187.061C517.337 193.684 507.536 194.668 500.889 189.271C494.241 183.874 493.241 174.12 498.668 167.498Z" fill="white"/>
<path fill-rule="evenodd" clip-rule="evenodd" d="M495.319 167.433C499.862 160.195 509.518 157.988 516.885 162.503C524.253 167.018 526.542 176.546 521.998 183.783L521.379 184.77C516.836 192.007 507.18 194.214 499.813 189.699C492.445 185.184 490.156 175.657 494.7 168.419L495.319 167.433ZM501.93 185.086L501.247 172.957L504.855 180.175L504.854 180.176L512.688 180.305L501.93 185.086ZM514.625 166.989L514.364 180.152L506.365 179.971L502.648 173.059L514.625 166.989Z" fill="#315EFB"/>
<path d="M469.31 170.821H478.779" stroke="#28BC00" stroke-width="2" stroke-linecap="round" stroke-linejoin="round"/>
<path d="M484.106 180.246H459.249" stroke="#28BC00" stroke-width="2" stroke-linecap="round" stroke-linejoin="round"/>
<path d="M122.506 169.643H138.485" stroke="#28BC00" stroke-width="2" stroke-linecap="round" stroke-linejoin="round"/>
<path d="M151.505 179.067H126.649" stroke="#28BC00" stroke-width="2" stroke-linecap="round" stroke-linejoin="round"/>
<path fill-rule="evenodd" clip-rule="evenodd" d="M103.255 60.3951C101.14 51.9768 106.437 43.7473 115.087 42.014C123.738 40.2807 132.465 45.7 134.58 54.1183L135.264 56.8397C137.38 65.258 132.082 73.4875 123.432 75.2208C114.782 76.9541 106.055 71.5348 103.939 63.1165L103.255 60.3951ZM126.243 61.3772L119.501 62.465C119.882 61.8268 120.239 61.1763 120.57 60.5143C121.43 58.8563 122.278 57.1924 123.113 55.5228C123.181 55.3866 123.264 55.2486 123.349 55.1088C123.587 54.7133 123.831 54.3067 123.782 53.9107C123.702 53.1935 123.435 52.4721 123.16 51.7299C123.046 51.426 122.938 51.121 122.835 50.815L118.651 51.49L117.795 48.893L114.442 49.4339L115.32 52.0968L111.481 52.7161L112.529 55.8971L118.995 54.8539C118.826 55.1667 118.664 55.4584 118.507 55.7416C118.307 56.1019 118.116 56.448 117.926 56.8046C117.066 58.4627 116.219 60.1267 115.384 61.7964C115.316 61.9468 115.228 62.1014 115.139 62.2576C114.924 62.6348 114.701 63.0235 114.749 63.403C114.83 64.1216 115.097 64.8448 115.368 65.577C115.477 65.8718 115.587 66.1674 115.685 66.4653L119.834 65.7958L120.701 68.4264L124.192 67.8631C124.013 67.4239 123.838 66.9839 123.667 66.5431C123.496 66.1098 123.326 65.6764 123.142 65.2281L127.291 64.5588L126.242 61.3773L126.243 61.3772Z" fill="#315EFB"/>
<path d="M133.159 77.7531L139.077 83.6434" stroke="#28BC00" stroke-width="2" stroke-linecap="round" stroke-linejoin="round"/>
<path d="M430.842 61.8483C430.842 43.9559 445.5 29.4512 463.392 29.4512C481.285 29.4512 495.942 43.9559 495.942 61.8483C495.942 79.7407 481.285 94.2454 463.392 94.2454C445.5 94.2454 430.842 79.7407 430.842 61.8483Z" fill="white"/>
<path fill-rule="evenodd" clip-rule="evenodd" d="M462.209 32.9865C445.617 32.9865 432.026 46.4363 432.026 63.0275C432.026 79.6186 445.617 93.0684 462.209 93.0684C478.8 93.0684 492.391 79.6186 492.391 63.0275C492.391 46.4363 478.8 32.9865 462.209 32.9865ZM469.234 51.8469C473.351 53.2584 476.362 55.3742 475.77 59.31C475.342 62.1911 473.737 63.586 471.607 64.0749C474.532 65.5909 476.021 67.9156 474.603 71.9457C472.843 76.951 468.662 77.3734 463.102 76.3261L461.752 81.7085L458.492 80.8997L459.823 75.5894C458.978 75.3805 458.115 75.1587 457.225 74.9183L455.888 80.2536L452.632 79.4448L453.981 74.0522C453.739 73.9905 453.496 73.9276 453.251 73.8642L453.062 73.8151L453.06 73.8145C452.597 73.6945 452.13 73.5731 451.656 73.4551L447.413 72.4023L449.032 68.6874C449.032 68.6874 451.434 69.3233 451.402 69.2762C452.325 69.5036 452.735 68.9046 452.896 68.5053L455.029 59.9968C455.059 60.0041 455.09 60.0116 455.12 60.019C455.168 60.0308 455.215 60.0425 455.261 60.0541L455.262 60.0543L455.373 60.0818C455.243 60.03 455.125 59.9968 455.034 59.9737L456.555 53.8998C456.595 53.2103 456.357 52.3405 455.036 52.0123C455.087 51.9781 452.668 51.4263 452.668 51.4263L453.535 47.9601L458.032 49.0776L458.028 49.0942C458.704 49.2615 459.401 49.4205 460.11 49.5813L461.447 44.2516L464.706 45.0604L463.396 50.2857C464.271 50.4844 465.151 50.685 466.008 50.8976L467.309 45.7065L470.569 46.5153L469.234 51.8469ZM468.32 69.7066C467.396 73.404 461.581 71.8754 458.92 71.176C458.681 71.1131 458.467 71.0568 458.285 71.0117L460.075 63.8676C460.297 63.9227 460.569 63.9834 460.876 64.052C463.628 64.6666 469.267 65.9261 468.32 69.7066ZM461.429 60.7367C463.647 61.3259 468.486 62.6111 469.329 59.2505C470.189 55.8132 465.487 54.777 463.19 54.271C462.932 54.2141 462.704 54.1638 462.518 54.1177L460.894 60.5973C461.048 60.6353 461.227 60.6831 461.429 60.7367Z" fill="#315EFB"/>
<path fill-rule="evenodd" clip-rule="evenodd" d="M84.6951 159.58C76.4873 165.734 74.8563 177.363 81.0005 185.486C87.1447 193.61 98.8212 195.261 107.029 189.107C115.237 182.953 116.868 171.324 110.724 163.201C104.579 155.078 92.9029 153.426 84.6951 159.58ZM95.1804 166.365C97.7613 165.549 100.056 165.48 101.241 167.611C102.111 169.169 101.836 170.433 100.958 171.448C102.985 171.119 104.6 171.707 105.409 174.185C106.414 177.262 104.49 178.993 101.328 180.512L102.679 183.623L100.751 184.419L99.4181 181.349C98.9187 181.556 98.4052 181.763 97.8717 181.971L99.2116 185.054L97.2856 185.849L95.9306 182.733C95.7499 182.806 95.5674 182.879 95.3837 182.953C95.1078 183.063 94.8289 183.175 94.5485 183.29L92.0395 184.326L91.4493 181.928C91.4493 181.928 92.8849 181.361 92.851 181.35C93.3962 181.124 93.375 180.683 93.3054 180.43L91.1691 175.512L91.2097 175.495C91.2428 175.481 91.2755 175.468 91.3073 175.455L91.3727 175.428C91.2885 175.45 91.2172 175.477 91.1632 175.499L89.6378 171.989C89.3985 171.639 88.9527 171.303 88.1716 171.625C88.1842 171.59 86.7719 172.204 86.7719 172.204L85.901 170.201L88.5606 169.104L88.565 169.113C88.9646 168.948 89.3712 168.771 89.785 168.591L88.4473 165.51L90.3742 164.715L91.6862 167.735C92.1966 167.512 92.7104 167.289 93.2172 167.079L91.9135 164.08L93.8414 163.283L95.1804 166.365ZM101.454 175.19C102.382 177.381 98.9898 178.754 97.4376 179.383L97.4373 179.383C97.2978 179.439 97.1731 179.49 97.0678 179.534L95.2772 175.298C95.4056 175.244 95.56 175.174 95.7349 175.096C97.2998 174.391 100.507 172.948 101.454 175.19ZM94.3716 173.598C95.6707 173.078 98.5042 171.946 97.6601 169.958C96.7961 167.926 94.1214 169.133 92.8153 169.723C92.6683 169.789 92.5387 169.848 92.4309 169.893L94.0593 173.724C94.1481 173.687 94.2535 173.645 94.3716 173.598Z" fill="#315EFB"/>
<path d="M197.667 326.916L216.013 308.656" stroke="#28BC00" stroke-width="2" stroke-linecap="round" stroke-linejoin="round"/>
<path d="M209.503 328.683L234.951 303.354" stroke="#28BC00" stroke-width="2" stroke-linecap="round" stroke-linejoin="round"/>
<path d="M417.822 105.438L431.434 91.8904" stroke="#28BC00" stroke-width="2" stroke-linecap="round" stroke-linejoin="round"/>
<path d="M440.903 95.4242L418.414 117.808" stroke="#28BC00" stroke-width="2" stroke-linecap="round" stroke-linejoin="round"/>
<path d="M136.118 70.0953L149.138 83.0542" stroke="#28BC00" stroke-width="2" stroke-linecap="round" stroke-linejoin="round"/>
<path d="M450.964 309.834L459.249 318.081" stroke="#28BC00" stroke-width="2" stroke-linecap="round" stroke-linejoin="round"/>
<path d="M435.577 306.889L455.699 326.916" stroke="#28BC00" stroke-width="2" stroke-linecap="round" stroke-linejoin="round"/>
<path d="M519.023 289.807L523.758 294.519" stroke="#28BC00" stroke-width="2" stroke-linecap="round" stroke-linejoin="round"/>
<path d="M507.187 288.628L515.472 296.875" stroke="#28BC00" stroke-width="2" stroke-linecap="round" stroke-linejoin="round"/>
<defs>
<linearGradient id="paint0_linear_6271_529" x1="256.657" y1="79.1212" x2="194.505" y2="-8.52292" gradientUnits="userSpaceOnUse">
<stop stop-color="#28BC00"/>
<stop offset="1" stop-color="#28BC00" stop-opacity="0"/>
</linearGradient>
<linearGradient id="paint1_linear_6271_529" x1="88.1807" y1="101.314" x2="76.3443" y2="101.314" gradientUnits="userSpaceOnUse">
<stop stop-color="#EEEEFF"/>
<stop offset="1" stop-color="#EEEEFF" stop-opacity="0"/>
</linearGradient>
<linearGradient id="paint2_linear_6271_529" x1="450.372" y1="124.876" x2="438.536" y2="124.876" gradientUnits="userSpaceOnUse">
<stop stop-color="#EEEEFF"/>
<stop offset="1" stop-color="#EEEEFF" stop-opacity="0"/>
</linearGradient>
<linearGradient id="paint3_linear_6271_529" x1="536.777" y1="74.2184" x2="524.941" y2="74.2184" gradientUnits="userSpaceOnUse">
<stop stop-color="#EEEEFF"/>
<stop offset="1" stop-color="#EEEEFF" stop-opacity="0"/>
</linearGradient>
<linearGradient id="paint4_linear_6271_529" x1="162.75" y1="302.765" x2="150.913" y2="302.765" gradientUnits="userSpaceOnUse">
<stop stop-color="#EEEEFF"/>
<stop offset="1" stop-color="#EEEEFF" stop-opacity="0"/>
</linearGradient>
<linearGradient id="paint5_linear_6271_529" x1="425.323" y1="261.56" x2="129.468" y2="228.389" gradientUnits="userSpaceOnUse">
<stop/>
<stop offset="1" stop-opacity="0"/>
</linearGradient>
<linearGradient id="paint6_linear_6271_529" x1="383.716" y1="211.194" x2="350.258" y2="208.18" gradientUnits="userSpaceOnUse">
<stop stop-color="#DADAFF"/>
<stop offset="1" stop-color="#EEEEFF" stop-opacity="0"/>
</linearGradient>
<linearGradient id="paint7_linear_6271_529" x1="356.882" y1="69.3036" x2="186.696" y2="53.2837" gradientUnits="userSpaceOnUse">
<stop stop-color="#DADAFF"/>
<stop offset="1" stop-color="#EEEEFF" stop-opacity="0"/>
</linearGradient>
<linearGradient id="paint8_linear_6271_529" x1="425.773" y1="236.461" x2="417.443" y2="228.092" gradientUnits="userSpaceOnUse">
<stop stop-color="#EEEEFF"/>
<stop offset="1" stop-color="#EEEEFF" stop-opacity="0"/>
</linearGradient>
<linearGradient id="paint9_linear_6271_529" x1="347.615" y1="350.675" x2="-89.199" y2="293.059" gradientUnits="userSpaceOnUse">
<stop stop-color="#DADAFF"/>
<stop offset="1" stop-color="#EEEEFF" stop-opacity="0"/>
</linearGradient>
<linearGradient id="paint10_linear_6271_529" x1="416.948" y1="399.187" x2="345.509" y2="283.181" gradientUnits="userSpaceOnUse">
<stop stop-color="#28BC00"/>
<stop offset="1" stop-color="#28BC00" stop-opacity="0"/>
</linearGradient>
<linearGradient id="paint11_linear_6271_529" x1="597.414" y1="233.402" x2="457.088" y2="218.852" gradientUnits="userSpaceOnUse">
<stop stop-color="#DADAFF"/>
<stop offset="1" stop-color="#EEEEFF" stop-opacity="0"/>
</linearGradient>
</defs>
</svg>
